<?xml version="1.0" encoding="UTF-8" standalone="no"?>
<svg
   xmlns:dc="http://purl.org/dc/elements/1.1/"
   xmlns:cc="http://creativecommons.org/ns#"
   xmlns:rdf="http://www.w3.org/1999/02/22-rdf-syntax-ns#"
   xmlns:svg="http://www.w3.org/2000/svg"
   xmlns="http://www.w3.org/2000/svg"
   xmlns:sodipodi="http://sodipodi.sourceforge.net/DTD/sodipodi-0.dtd"
   xmlns:inkscape="http://www.inkscape.org/namespaces/inkscape"
   width="300"
   height="300"
   viewBox="0 0 79.374998 79.375002"
   version="1.1"
   id="svg8"
   inkscape:version="1.0.2-2 (e86c870879, 2021-01-15)"
   sodipodi:docname="akilimob-logo-light.svg">
  <defs
     id="defs2" />
  <sodipodi:namedview
     id="base"
     pagecolor="#ffffff"
     bordercolor="#666666"
     borderopacity="1.0"
     inkscape:pageopacity="0.0"
     inkscape:pageshadow="2"
     inkscape:zoom="1.979899"
     inkscape:cx="150"
     inkscape:cy="135.08727"
     inkscape:document-units="mm"
     inkscape:current-layer="layer3"
     inkscape:document-rotation="0"
     showgrid="false"
     units="px"
     inkscape:window-width="1920"
     inkscape:window-height="1009"
     inkscape:window-x="2552"
     inkscape:window-y="-8"
     inkscape:window-maximized="1"
     inkscape:pagecheckerboard="true"
     borderlayer="true"
     inkscape:showpageshadow="false" />
  <metadata
     id="metadata5">
    <rdf:RDF>
      <cc:Work
         rdf:about="">
        <dc:format>image/svg+xml</dc:format>
        <dc:type
           rdf:resource="http://purl.org/dc/dcmitype/StillImage" />
        <dc:title></dc:title>
      </cc:Work>
    </rdf:RDF>
  </metadata>
  <g
     inkscape:groupmode="layer"
     id="layer3"
     inkscape:label="Logo image"
     style="display:inline">
    <g
       id="g854"
       style="display:inline;fill:#808080"
       transform="translate(6.1599409,10.583333)">
      <path
         id="rect28"
         style="fill:#808080;fill-opacity:1;stroke-width:0.0227267"
         d="m 22.429603,1.9997729 h 0.734991 0.734992 0.734991 0.734991 0.734991 0.734992 0.734991 0.734991 l 0.04725,8.9826231 c 0,0 -0.0058,0.327776 0.324823,0.622261 0.601078,0.535391 1.21543,0.840481 2.00918,0.980801 0.432063,0.07638 1.027376,0.137635 1.514672,0.289485 0.487297,0.151849 1.04966,0.400201 1.04966,0.838963 0,0.633162 -0.52758,0.709738 -1.483937,0.798639 -0.937938,0.08719 -1.262606,0.0091 -2.667895,0.187317 -1.704684,0.216165 -2.219529,0.395442 -3.96875,0.991864 -1.142558,0.389571 1.016846,0.833823 1.579148,1.000146 0.956512,0.282927 1.582426,0.425319 1.579148,0.749582 l 0.0167,0.187611 V 31.80887 H 25.369568 22.429603 V 17.629066 c 0,0 0.0168,-0.06512 -0.096,-0.223108 -0.442139,-0.619281 -0.91217,-0.65354 -1.49145,-0.747494 -0.578821,-0.09388 -1.900514,-0.239393 -1.840153,-0.822662 0.06997,-0.676086 1.046843,-0.585175 1.919138,-0.66825 0.872296,-0.08307 1.64001,-0.122931 2.227096,-0.208774 1.540401,-0.225235 3.384576,-0.444935 4.043919,-1.25078 0.55569,-0.67916 -1.507797,-1.038105 -2.38125,-1.122542 -0.760341,-0.0735 -2.325271,-0.246805 -2.38125,-1.122542 -0.01377,-0.215426 0,-0.498238 0,-0.498238 z"
         sodipodi:nodetypes="ccccccccccssssssssccccccsssssssscc" />
      <path
         id="path846"
         style="fill:#808080;fill-opacity:1;stroke-width:0.0227267"
         d="m 29.829603,1.9997729 h 0.734991 0.734992 0.734991 0.734991 0.734991 0.734992 0.734991 0.734991 l 0.04725,8.9826231 c 0,0 -0.0058,0.327776 0.324823,0.622261 0.601078,0.535391 1.21543,0.840481 2.00918,0.980801 0.432063,0.07638 1.027376,0.137635 1.514672,0.289485 0.487297,0.151849 1.04966,0.400201 1.04966,0.838963 0,0.633162 -0.52758,0.709738 -1.483937,0.798639 -0.937938,0.08719 -1.262606,0.0091 -2.667895,0.187317 -1.704684,0.216165 -2.219529,0.395442 -3.96875,0.991864 -1.142558,0.389571 1.016846,0.833823 1.579148,1.000146 0.956512,0.282927 1.582426,0.425319 1.579148,0.749582 l 0.0167,0.187611 V 31.80887 H 32.769568 29.829603 V 17.629066 c 0,0 0.0168,-0.06512 -0.096,-0.223108 -0.442139,-0.619281 -0.91217,-0.65354 -1.49145,-0.747494 -0.578821,-0.09388 -1.900514,-0.239393 -1.840153,-0.822662 0.06997,-0.676086 1.046843,-0.585175 1.919138,-0.66825 0.872296,-0.08307 1.64001,-0.122931 2.227096,-0.208774 1.540401,-0.225235 3.384576,-0.444935 4.043919,-1.25078 0.55569,-0.67916 -1.507797,-1.038105 -2.38125,-1.122542 -0.760341,-0.0735 -2.325271,-0.246805 -2.38125,-1.122542 -0.01377,-0.215426 0,-0.498238 0,-0.498238 z"
         sodipodi:nodetypes="ccccccccccssssssssccccccsssssssscc" />
      <path
         id="path848"
         style="fill:#808080;fill-opacity:1;stroke-width:0.0227267"
         d="m 37.229603,1.9997729 h 0.734991 0.734992 0.734991 0.734991 0.734991 0.734992 0.734991 0.734991 l 0.04725,8.9826231 c 0,0 -0.0058,0.327776 0.324823,0.622261 0.601078,0.535391 1.21543,0.840481 2.00918,0.980801 0.432063,0.07638 1.027376,0.137635 1.514672,0.289485 0.487297,0.151849 1.04966,0.400201 1.04966,0.838963 0,0.633162 -0.52758,0.709738 -1.483937,0.798639 -0.937938,0.08719 -1.262606,0.0091 -2.667895,0.187317 -1.704684,0.216165 -2.219529,0.395442 -3.96875,0.991864 -1.142558,0.389571 1.016846,0.833823 1.579148,1.000146 0.956512,0.282927 1.582426,0.425319 1.579148,0.749582 l 0.0167,0.187611 V 31.80887 H 40.169568 37.229603 V 17.629066 c 0,0 0.0168,-0.06512 -0.096,-0.223108 -0.442139,-0.619281 -0.91217,-0.65354 -1.49145,-0.747494 -0.578821,-0.09388 -1.900514,-0.239393 -1.840153,-0.822662 0.06997,-0.676086 1.046843,-0.585175 1.919138,-0.66825 0.872296,-0.08307 1.64001,-0.122931 2.227096,-0.208774 1.540401,-0.225235 3.384576,-0.444935 4.043919,-1.25078 0.55569,-0.67916 -1.507797,-1.038105 -2.38125,-1.122542 -0.760341,-0.0735 -2.325271,-0.246805 -2.38125,-1.122542 -0.01377,-0.215426 0,-0.498238 0,-0.498238 z"
         sodipodi:nodetypes="ccccccccccssssssssccccccsssssssscc" />
    </g>
  </g>
  <g
     inkscape:groupmode="layer"
     id="layer4"
     inkscape:label="Payoff"
     style="display:inline">
    <g
       aria-label="FLEET AND MOBILITY"
       transform="scale(1.2250515,0.8162922)"
       id="text866"
       style="font-style:normal;font-variant:normal;font-weight:300;font-stretch:normal;font-size:5.53487px;line-height:1.25;font-family:Kanit;-inkscape-font-specification:'Kanit, Light';font-variant-ligatures:normal;font-variant-caps:normal;font-variant-numeric:normal;font-variant-east-asian:normal;fill:#999999;fill-opacity:1;stroke:none;stroke-width:0.180485">
      <path
         d="m 6.6567261,74.179512 v -3.564456 h 2.3357152 v 0.359766 H 7.1105855 v 1.245346 H 8.7876511 V 72.5744 H 7.1105855 v 1.605112 z"
         style="font-style:normal;font-variant:normal;font-weight:300;font-stretch:normal;font-size:5.53487px;font-family:Kanit;-inkscape-font-specification:'Kanit, Light';font-variant-ligatures:normal;font-variant-caps:normal;font-variant-numeric:normal;font-variant-east-asian:normal;fill:#999999;fill-opacity:1;stroke-width:0.180485"
         id="path886" />
      <path
         d="m 9.5459249,74.179512 v -3.564456 h 0.4538593 v 3.210224 h 1.8984608 v 0.354232 z"
         style="font-style:normal;font-variant:normal;font-weight:300;font-stretch:normal;font-size:5.53487px;font-family:Kanit;-inkscape-font-specification:'Kanit, Light';font-variant-ligatures:normal;font-variant-caps:normal;font-variant-numeric:normal;font-variant-east-asian:normal;fill:#999999;fill-opacity:1;stroke-width:0.180485"
         id="path888" />
      <path
         d="m 12.45173,74.179512 v -3.564456 h 2.407668 v 0.359766 h -1.953809 v 1.245346 h 1.754554 V 72.5744 h -1.754554 v 1.25088 h 1.953809 v 0.354232 z"
         style="font-style:normal;font-variant:normal;font-weight:300;font-stretch:normal;font-size:5.53487px;font-family:Kanit;-inkscape-font-specification:'Kanit, Light';font-variant-ligatures:normal;font-variant-caps:normal;font-variant-numeric:normal;font-variant-east-asian:normal;fill:#999999;fill-opacity:1;stroke-width:0.180485"
         id="path890" />
      <path
         d="m 15.523574,74.179512 v -3.564456 h 2.407669 v 0.359766 h -1.95381 v 1.245346 h 1.754554 V 72.5744 h -1.754554 v 1.25088 h 1.95381 v 0.354232 z"
         style="font-style:normal;font-variant:normal;font-weight:300;font-stretch:normal;font-size:5.53487px;font-family:Kanit;-inkscape-font-specification:'Kanit, Light';font-variant-ligatures:normal;font-variant-caps:normal;font-variant-numeric:normal;font-variant-east-asian:normal;fill:#999999;fill-opacity:1;stroke-width:0.180485"
         id="path892" />
      <path
         d="m 19.558486,74.179512 v -3.20469 h -1.184463 v -0.359766 h 2.822784 v 0.359766 h -1.184462 v 3.20469 z"
         style="font-style:normal;font-variant:normal;font-weight:300;font-stretch:normal;font-size:5.53487px;font-family:Kanit;-inkscape-font-specification:'Kanit, Light';font-variant-ligatures:normal;font-variant-caps:normal;font-variant-numeric:normal;font-variant-east-asian:normal;fill:#999999;fill-opacity:1;stroke-width:0.180485"
         id="path894" />
      <path
         d="m 22.912612,74.179512 1.356043,-3.564456 h 0.531347 l 1.350509,3.564456 H 25.685582 L 25.30921,73.19984 h -1.549763 l -0.376371,0.979672 z m 0.924323,-1.339439 h 1.389252 l -0.697393,-1.832042 z"
         style="font-style:normal;font-variant:normal;font-weight:300;font-stretch:normal;font-size:5.53487px;font-family:Kanit;-inkscape-font-specification:'Kanit, Light';font-variant-ligatures:normal;font-variant-caps:normal;font-variant-numeric:normal;font-variant-east-asian:normal;fill:#999999;fill-opacity:1;stroke-width:0.180485"
         id="path896" />
      <path
         d="m 26.814693,74.179512 v -3.564456 h 0.40958 l 2.031297,2.867062 v -2.867062 h 0.45386 v 3.564456 h -0.415115 l -2.025763,-2.861528 v 2.861528 z"
         style="font-style:normal;font-variant:normal;font-weight:300;font-stretch:normal;font-size:5.53487px;font-family:Kanit;-inkscape-font-specification:'Kanit, Light';font-variant-ligatures:normal;font-variant-caps:normal;font-variant-numeric:normal;font-variant-east-asian:normal;fill:#999999;fill-opacity:1;stroke-width:0.180485"
         id="path898" />
      <path
         d="m 30.484302,74.179512 v -3.564456 h 1.394787 q 0.774882,0 1.134648,0.42065 0.359767,0.42065 0.359767,1.383717 0,0.913254 -0.354232,1.339439 -0.348696,0.42065 -1.140183,0.42065 z m 0.453859,-0.354232 h 0.857905 q 0.376371,0 0.62544,-0.110697 0.24907,-0.116232 0.370837,-0.42065 0.127302,-0.304418 0.127302,-0.87451 0,-0.564556 -0.116233,-0.880044 -0.110697,-0.315488 -0.359766,-0.437255 -0.243534,-0.127302 -0.64758,-0.127302 h -0.857905 z"
         style="font-style:normal;font-variant:normal;font-weight:300;font-stretch:normal;font-size:5.53487px;font-family:Kanit;-inkscape-font-specification:'Kanit, Light';font-variant-ligatures:normal;font-variant-caps:normal;font-variant-numeric:normal;font-variant-east-asian:normal;fill:#999999;fill-opacity:1;stroke-width:0.180485"
         id="path900" />
      <path
         d="m 35.310697,74.179512 v -3.564456 h 0.487068 l 1.206602,2.474087 1.206602,-2.474087 h 0.487068 v 3.564456 h -0.448324 v -2.855993 l -1.09037,2.236088 h -0.304417 l -1.095905,-2.236088 v 2.855993 z"
         style="font-style:normal;font-variant:normal;font-weight:300;font-stretch:normal;font-size:5.53487px;font-family:Kanit;-inkscape-font-specification:'Kanit, Light';font-variant-ligatures:normal;font-variant-caps:normal;font-variant-numeric:normal;font-variant-east-asian:normal;fill:#999999;fill-opacity:1;stroke-width:0.180485"
         id="path902" />
      <path
         d="m 41.00607,74.234861 q -0.835765,0 -1.239811,-0.437255 -0.404045,-0.44279 -0.404045,-1.400322 0,-0.957533 0.404045,-1.394787 0.404046,-0.44279 1.239811,-0.44279 0.8413,0 1.239811,0.44279 0.404046,0.437254 0.404046,1.394787 0,0.957532 -0.404046,1.400322 -0.398511,0.437255 -1.239811,0.437255 z m 0,-0.387441 q 0.404046,0 0.664185,-0.138372 0.265673,-0.138372 0.392975,-0.453859 0.132837,-0.321023 0.132837,-0.857905 0,-0.536883 -0.132837,-0.85237 -0.127302,-0.321023 -0.392975,-0.459394 -0.260139,-0.138372 -0.664185,-0.138372 -0.404045,0 -0.669719,0.138372 -0.260139,0.138371 -0.392976,0.459394 -0.127302,0.315487 -0.127302,0.85237 0,0.536882 0.127302,0.857905 0.132837,0.315487 0.392976,0.453859 0.265674,0.138372 0.669719,0.138372 z"
         style="font-style:normal;font-variant:normal;font-weight:300;font-stretch:normal;font-size:5.53487px;font-family:Kanit;-inkscape-font-specification:'Kanit, Light';font-variant-ligatures:normal;font-variant-caps:normal;font-variant-numeric:normal;font-variant-east-asian:normal;fill:#999999;fill-opacity:1;stroke-width:0.180485"
         id="path904" />
      <path
         d="m 43.314101,74.179512 v -3.564456 h 1.649392 q 0.525812,0 0.769347,0.249069 0.249069,0.243534 0.249069,0.691859 0,0.293348 -0.121767,0.492603 -0.116233,0.19372 -0.326558,0.293348 0.271209,0.06642 0.426185,0.260139 0.160512,0.188186 0.160512,0.559022 0,0.520278 -0.271209,0.769347 -0.271209,0.249069 -0.797021,0.249069 z m 0.45386,-2.003623 h 1.167857 q 0.337627,0 0.475999,-0.160511 0.143907,-0.166046 0.143907,-0.426185 0,-0.309953 -0.143907,-0.464929 -0.143906,-0.160512 -0.559022,-0.160512 h -1.084834 z m 0,1.660461 h 1.206601 q 0.359767,0 0.525813,-0.154976 0.166046,-0.160512 0.166046,-0.536883 0,-0.309952 -0.166046,-0.464929 -0.160511,-0.160511 -0.597766,-0.160511 h -1.134648 z"
         style="font-style:normal;font-variant:normal;font-weight:300;font-stretch:normal;font-size:5.53487px;font-family:Kanit;-inkscape-font-specification:'Kanit, Light';font-variant-ligatures:normal;font-variant-caps:normal;font-variant-numeric:normal;font-variant-east-asian:normal;fill:#999999;fill-opacity:1;stroke-width:0.180485"
         id="path906" />
      <path
         d="m 46.784461,74.179512 v -3.564456 h 0.45386 v 3.564456 z"
         style="font-style:normal;font-variant:normal;font-weight:300;font-stretch:normal;font-size:5.53487px;font-family:Kanit;-inkscape-font-specification:'Kanit, Light';font-variant-ligatures:normal;font-variant-caps:normal;font-variant-numeric:normal;font-variant-east-asian:normal;fill:#999999;fill-opacity:1;stroke-width:0.180485"
         id="path908" />
      <path
         d="m 48.01319,74.179512 v -3.564456 h 0.45386 v 3.210224 h 1.89846 v 0.354232 z"
         style="font-style:normal;font-variant:normal;font-weight:300;font-stretch:normal;font-size:5.53487px;font-family:Kanit;-inkscape-font-specification:'Kanit, Light';font-variant-ligatures:normal;font-variant-caps:normal;font-variant-numeric:normal;font-variant-east-asian:normal;fill:#999999;fill-opacity:1;stroke-width:0.180485"
         id="path910" />
      <path
         d="m 50.918998,74.179512 v -3.564456 h 0.453859 v 3.564456 z"
         style="font-style:normal;font-variant:normal;font-weight:300;font-stretch:normal;font-size:5.53487px;font-family:Kanit;-inkscape-font-specification:'Kanit, Light';font-variant-ligatures:normal;font-variant-caps:normal;font-variant-numeric:normal;font-variant-east-asian:normal;fill:#999999;fill-opacity:1;stroke-width:0.180485"
         id="path912" />
      <path
         d="m 53.110795,74.179512 v -3.20469 h -1.184463 v -0.359766 h 2.822784 v 0.359766 h -1.184462 v 3.20469 z"
         style="font-style:normal;font-variant:normal;font-weight:300;font-stretch:normal;font-size:5.53487px;font-family:Kanit;-inkscape-font-specification:'Kanit, Light';font-variant-ligatures:normal;font-variant-caps:normal;font-variant-numeric:normal;font-variant-east-asian:normal;fill:#999999;fill-opacity:1;stroke-width:0.180485"
         id="path914" />
      <path
         d="m 56.409575,74.179512 v -1.328369 l -1.27302,-2.236087 h 0.470464 l 1.029486,1.848646 1.029486,-1.848646 h 0.470464 l -1.27302,2.236087 v 1.328369 z"
         style="font-style:normal;font-variant:normal;font-weight:300;font-stretch:normal;font-size:5.53487px;font-family:Kanit;-inkscape-font-specification:'Kanit, Light';font-variant-ligatures:normal;font-variant-caps:normal;font-variant-numeric:normal;font-variant-east-asian:normal;fill:#999999;fill-opacity:1;stroke-width:0.180485"
         id="path916" />
    </g>
  </g>
  <g
     inkscape:label="Logo text"
     inkscape:groupmode="layer"
     id="layer1"
     style="display:inline">
    <g
       id="g22"
       transform="matrix(0.83566706,0,0,0.83566706,7.8955302,25.65977)"
       style="fill:#333333;fill-opacity:1">
      <g
         aria-label="AKILI"
         id="text12"
         style="font-style:normal;font-weight:normal;font-size:10.5833px;line-height:1.25;font-family:sans-serif;letter-spacing:0px;word-spacing:0px;fill:#333333;fill-opacity:1;stroke:none;stroke-width:0.264583">
        <path
           d="M 0,36.6651 5.554139,22.124996 H 9.4826763 L 15.036815,36.6651 h -3.79307 L 9.9342323,33.368741 H 5.0800052 L 3.7930705,36.6651 Z M 5.5767168,30.681983 H 9.4375207 L 7.4958298,25.624556 Z"
           style="font-style:normal;font-variant:normal;font-weight:600;font-stretch:normal;font-size:22.5778px;font-family:Kanit;-inkscape-font-specification:'Kanit, Semi-Bold';font-variant-ligatures:normal;font-variant-caps:normal;font-variant-numeric:normal;font-variant-east-asian:normal;fill:#333333;fill-opacity:1;stroke-width:0.264583"
           id="path868" />
        <path
           d="M 16.888167,36.6651 V 22.124996 h 3.635026 v 5.644451 l 5.012272,-5.644451 h 4.154315 l -5.192894,5.937962 5.508983,8.602142 h -3.883381 l -3.883382,-6.276629 -1.715913,1.873958 V 36.6651 Z"
           style="font-style:normal;font-variant:normal;font-weight:600;font-stretch:normal;font-size:22.5778px;font-family:Kanit;-inkscape-font-specification:'Kanit, Semi-Bold';font-variant-ligatures:normal;font-variant-caps:normal;font-variant-numeric:normal;font-variant-east-asian:normal;fill:#333333;fill-opacity:1;stroke-width:0.264583"
           id="path870" />
        <path
           d="M 31.857207,36.6651 V 22.124996 h 3.635026 V 36.6651 Z"
           style="font-style:normal;font-variant:normal;font-weight:600;font-stretch:normal;font-size:22.5778px;font-family:Kanit;-inkscape-font-specification:'Kanit, Semi-Bold';font-variant-ligatures:normal;font-variant-caps:normal;font-variant-numeric:normal;font-variant-east-asian:normal;fill:#333333;fill-opacity:1;stroke-width:0.264583"
           id="path872" />
        <path
           d="M 37.795138,36.6651 V 22.124996 h 3.635026 v 11.740457 h 6.863652 V 36.6651 Z"
           style="font-style:normal;font-variant:normal;font-weight:600;font-stretch:normal;font-size:22.5778px;font-family:Kanit;-inkscape-font-specification:'Kanit, Semi-Bold';font-variant-ligatures:normal;font-variant-caps:normal;font-variant-numeric:normal;font-variant-east-asian:normal;fill:#333333;fill-opacity:1;stroke-width:0.264583"
           id="path874" />
        <path
           d="M 49.693606,36.6651 V 22.124996 h 3.635026 V 36.6651 Z"
           style="font-style:normal;font-variant:normal;font-weight:600;font-stretch:normal;font-size:22.5778px;font-family:Kanit;-inkscape-font-specification:'Kanit, Semi-Bold';font-variant-ligatures:normal;font-variant-caps:normal;font-variant-numeric:normal;font-variant-east-asian:normal;fill:#333333;fill-opacity:1;stroke-width:0.264583"
           id="path876" />
      </g>
      <g
         aria-label="mob"
         id="text16"
         style="font-style:normal;font-weight:normal;font-size:10.5833px;line-height:1.25;font-family:sans-serif;fill:#333333;fill-opacity:1;stroke:none;stroke-width:0.264583">
        <path
           d="m 55.000001,36.663715 v -5.350938 h 0.835378 l 0.05644,0.6096 q 0.428978,-0.338667 0.903112,-0.530578 0.485423,-0.191911 1.038579,-0.191911 0.598312,0 0.92569,0.191911 0.338667,0.191911 0.496711,0.541867 0.383823,-0.316089 0.880535,-0.519289 0.496711,-0.214489 1.185334,-0.214489 0.914401,0 1.354668,0.474133 0.451556,0.462845 0.451556,1.433691 v 3.556003 h -0.914401 v -3.465692 q 0,-0.711201 -0.3048,-0.982134 -0.293512,-0.270934 -0.959557,-0.270934 -0.440267,0 -0.846667,0.146756 -0.395112,0.146755 -0.677334,0.451556 0.06773,0.282222 0.06773,0.654756 v 3.465692 h -0.869245 v -3.443114 q 0,-0.677334 -0.225778,-0.970846 -0.225778,-0.3048 -0.891823,-0.3048 -0.451556,0 -0.869246,0.2032 -0.4064,0.191912 -0.722489,0.485423 v 4.030137 z"
           style="font-style:normal;font-variant:normal;font-weight:300;font-stretch:normal;font-size:11.2889px;font-family:Kanit;-inkscape-font-specification:'Kanit, Light';font-variant-ligatures:normal;font-variant-caps:normal;font-variant-numeric:normal;font-variant-east-asian:normal;fill:#333333;fill-opacity:1;stroke-width:0.264583"
           id="path879" />
        <path
           d="m 66.921066,36.776604 q -1.399824,0 -2.043291,-0.7112 -0.632179,-0.72249 -0.632179,-2.077158 0,-1.343379 0.643468,-2.065869 0.643467,-0.722489 2.032002,-0.722489 1.388535,0 2.032002,0.722489 0.643467,0.72249 0.643467,2.065869 0,1.354668 -0.632178,2.077158 -0.632179,0.7112 -2.043291,0.7112 z m 0,-0.790223 q 0.959556,0 1.354668,-0.474133 0.395111,-0.485423 0.395111,-1.524002 0,-1.038579 -0.4064,-1.512713 -0.395112,-0.485422 -1.343379,-0.485422 -0.948268,0 -1.354668,0.485422 -0.395112,0.474134 -0.395112,1.512713 0,1.038579 0.395112,1.524002 0.395111,0.474133 1.354668,0.474133 z"
           style="font-style:normal;font-variant:normal;font-weight:300;font-stretch:normal;font-size:11.2889px;font-family:Kanit;-inkscape-font-specification:'Kanit, Light';font-variant-ligatures:normal;font-variant-caps:normal;font-variant-numeric:normal;font-variant-east-asian:normal;fill:#333333;fill-opacity:1;stroke-width:0.264583"
           id="path881" />
        <path
           d="m 73.671822,36.776604 q -0.598312,0 -1.049868,-0.158044 -0.440267,-0.169334 -0.812801,-0.51929 l -0.06773,0.564445 h -0.790223 v -7.608718 h 0.925689 v 2.652891 q 0.733779,-0.508 1.783647,-0.508 1.140179,0 1.783646,0.654756 0.643467,0.643467 0.643467,2.088446 0,1.456269 -0.643467,2.144891 -0.643467,0.688623 -1.772357,0.688623 z m -0.237067,-0.745067 q 0.936978,0 1.33209,-0.519289 0.395111,-0.51929 0.395111,-1.569158 0,-1.095023 -0.428978,-1.546579 -0.417689,-0.451556 -1.320801,-0.451556 -0.485423,0 -0.869245,0.146756 -0.383823,0.135467 -0.666046,0.383822 v 2.912537 q 0.304801,0.327378 0.699912,0.485422 0.395112,0.158045 0.857957,0.158045 z"
           style="font-style:normal;font-variant:normal;font-weight:300;font-stretch:normal;font-size:11.2889px;font-family:Kanit;-inkscape-font-specification:'Kanit, Light';font-variant-ligatures:normal;font-variant-caps:normal;font-variant-numeric:normal;font-variant-east-asian:normal;fill:#333333;fill-opacity:1;stroke-width:0.264583"
           id="path883" />
      </g>
    </g>
    <circle
       id="path34"
       style="fill:#666666;stroke:#000000;stroke-width:0.264583"
       cx="38.620445"
       cy="13.199957"
       r="0.00088305428" />
  </g>
</svg>
