<?xml version="1.0" encoding="UTF-8" standalone="no"?>
<svg
   xmlns:dc="http://purl.org/dc/elements/1.1/"
   xmlns:cc="http://creativecommons.org/ns#"
   xmlns:rdf="http://www.w3.org/1999/02/22-rdf-syntax-ns#"
   xmlns:svg="http://www.w3.org/2000/svg"
   xmlns="http://www.w3.org/2000/svg"
   xmlns:sodipodi="http://sodipodi.sourceforge.net/DTD/sodipodi-0.dtd"
   xmlns:inkscape="http://www.inkscape.org/namespaces/inkscape"
   width="128"
   height="128"
   viewBox="0 0 33.866666 33.866668"
   version="1.1"
   id="svg885"
   inkscape:version="1.0.2-2 (e86c870879, 2021-01-15)"
   sodipodi:docname="akilimob-icon-ligth.svg"
   inkscape:export-filename="C:\Users\dev3s\OneDrive - 3SD S.R.L\Documenti condivisi\SCAI\AKILI\images\akilimob-icon.png"
   inkscape:export-xdpi="768"
   inkscape:export-ydpi="768">
  <defs
     id="defs879" />
  <sodipodi:namedview
     id="base"
     pagecolor="#ffffff"
     bordercolor="#666666"
     borderopacity="1.0"
     inkscape:pageopacity="0.0"
     inkscape:pageshadow="2"
     inkscape:zoom="3.959798"
     inkscape:cx="50"
     inkscape:cy="33.507292"
     inkscape:document-units="mm"
     inkscape:current-layer="layer1"
     inkscape:document-rotation="0"
     showgrid="false"
     units="px"
     inkscape:showpageshadow="false"
     borderlayer="true"
     inkscape:window-width="1920"
     inkscape:window-height="1009"
     inkscape:window-x="2552"
     inkscape:window-y="-8"
     inkscape:window-maximized="1" />
  <metadata
     id="metadata882">
    <rdf:RDF>
      <cc:Work
         rdf:about="">
        <dc:format>image/svg+xml</dc:format>
        <dc:type
           rdf:resource="http://purl.org/dc/dcmitype/StillImage" />
        <dc:title></dc:title>
      </cc:Work>
    </rdf:RDF>
  </metadata>
  <g
     inkscape:label="Livello 1"
     inkscape:groupmode="layer"
     id="layer1">
    <g
       id="g854"
       style="display:inline;fill:#f9f9f9"
       transform="translate(-16.594226,0.02901188)">
      <path
         id="rect28"
         style="fill:#f9f9f9;fill-opacity:1;stroke-width:0.0227267"
         d="m 22.429603,1.9997729 h 0.734991 0.734992 0.734991 0.734991 0.734991 0.734992 0.734991 0.734991 l 0.04725,8.9826231 c 0,0 -0.0058,0.327776 0.324823,0.622261 0.601078,0.535391 1.21543,0.840481 2.00918,0.980801 0.432063,0.07638 1.027376,0.137635 1.514672,0.289485 0.487297,0.151849 1.04966,0.400201 1.04966,0.838963 0,0.633162 -0.52758,0.709738 -1.483937,0.798639 -0.937938,0.08719 -1.262606,0.0091 -2.667895,0.187317 -1.704684,0.216165 -2.219529,0.395442 -3.96875,0.991864 -1.142558,0.389571 1.016846,0.833823 1.579148,1.000146 0.956512,0.282927 1.582426,0.425319 1.579148,0.749582 l 0.0167,0.187611 V 31.80887 H 25.369568 22.429603 V 17.629066 c 0,0 0.0168,-0.06512 -0.096,-0.223108 -0.442139,-0.619281 -0.91217,-0.65354 -1.49145,-0.747494 -0.578821,-0.09388 -1.900514,-0.239393 -1.840153,-0.822662 0.06997,-0.676086 1.046843,-0.585175 1.919138,-0.66825 0.872296,-0.08307 1.64001,-0.122931 2.227096,-0.208774 1.540401,-0.225235 3.384576,-0.444935 4.043919,-1.25078 0.55569,-0.67916 -1.507797,-1.038105 -2.38125,-1.122542 -0.760341,-0.0735 -2.325271,-0.246805 -2.38125,-1.122542 -0.01377,-0.215426 0,-0.498238 0,-0.498238 z"
         sodipodi:nodetypes="ccccccccccssssssssccccccsssssssscc" />
      <path
         id="path846"
         style="fill:#f9f9f9;fill-opacity:1;stroke-width:0.0227267"
         d="m 29.829603,1.9997729 h 0.734991 0.734992 0.734991 0.734991 0.734991 0.734992 0.734991 0.734991 l 0.04725,8.9826231 c 0,0 -0.0058,0.327776 0.324823,0.622261 0.601078,0.535391 1.21543,0.840481 2.00918,0.980801 0.432063,0.07638 1.027376,0.137635 1.514672,0.289485 0.487297,0.151849 1.04966,0.400201 1.04966,0.838963 0,0.633162 -0.52758,0.709738 -1.483937,0.798639 -0.937938,0.08719 -1.262606,0.0091 -2.667895,0.187317 -1.704684,0.216165 -2.219529,0.395442 -3.96875,0.991864 -1.142558,0.389571 1.016846,0.833823 1.579148,1.000146 0.956512,0.282927 1.582426,0.425319 1.579148,0.749582 l 0.0167,0.187611 V 31.80887 H 32.769568 29.829603 V 17.629066 c 0,0 0.0168,-0.06512 -0.096,-0.223108 -0.442139,-0.619281 -0.91217,-0.65354 -1.49145,-0.747494 -0.578821,-0.09388 -1.900514,-0.239393 -1.840153,-0.822662 0.06997,-0.676086 1.046843,-0.585175 1.919138,-0.66825 0.872296,-0.08307 1.64001,-0.122931 2.227096,-0.208774 1.540401,-0.225235 3.384576,-0.444935 4.043919,-1.25078 0.55569,-0.67916 -1.507797,-1.038105 -2.38125,-1.122542 -0.760341,-0.0735 -2.325271,-0.246805 -2.38125,-1.122542 -0.01377,-0.215426 0,-0.498238 0,-0.498238 z"
         sodipodi:nodetypes="ccccccccccssssssssccccccsssssssscc" />
      <path
         id="path848"
         style="fill:#f9f9f9;fill-opacity:1;stroke-width:0.0227267"
         d="m 37.229603,1.9997729 h 0.734991 0.734992 0.734991 0.734991 0.734991 0.734992 0.734991 0.734991 l 0.04725,8.9826231 c 0,0 -0.0058,0.327776 0.324823,0.622261 0.601078,0.535391 1.21543,0.840481 2.00918,0.980801 0.432063,0.07638 1.027376,0.137635 1.514672,0.289485 0.487297,0.151849 1.04966,0.400201 1.04966,0.838963 0,0.633162 -0.52758,0.709738 -1.483937,0.798639 -0.937938,0.08719 -1.262606,0.0091 -2.667895,0.187317 -1.704684,0.216165 -2.219529,0.395442 -3.96875,0.991864 -1.142558,0.389571 1.016846,0.833823 1.579148,1.000146 0.956512,0.282927 1.582426,0.425319 1.579148,0.749582 l 0.0167,0.187611 V 31.80887 H 40.169568 37.229603 V 17.629066 c 0,0 0.0168,-0.06512 -0.096,-0.223108 -0.442139,-0.619281 -0.91217,-0.65354 -1.49145,-0.747494 -0.578821,-0.09388 -1.900514,-0.239393 -1.840153,-0.822662 0.06997,-0.676086 1.046843,-0.585175 1.919138,-0.66825 0.872296,-0.08307 1.64001,-0.122931 2.227096,-0.208774 1.540401,-0.225235 3.384576,-0.444935 4.043919,-1.25078 0.55569,-0.67916 -1.507797,-1.038105 -2.38125,-1.122542 -0.760341,-0.0735 -2.325271,-0.246805 -2.38125,-1.122542 -0.01377,-0.215426 0,-0.498238 0,-0.498238 z"
         sodipodi:nodetypes="ccccccccccssssssssccccccsssssssscc" />
    </g>
  </g>
</svg>
